<?xml version="1.0" encoding="UTF-8" standalone="no"?>
<svg width="351px" height="35px" viewBox="0 0 351 35" version="1.1" xmlns="http://www.w3.org/2000/svg" xmlns:xlink="http://www.w3.org/1999/xlink" xmlns:sketch="http://www.bohemiancoding.com/sketch/ns">
    <!-- Generator: Sketch 3.4.4 (17249) - http://www.bohemiancoding.com/sketch -->
    <title>headline</title>
    <desc>Created with Sketch.</desc>
    <defs></defs>
    <g id="Page-1" stroke="none" stroke-width="1" fill="none" fill-rule="evenodd" sketch:type="MSPage">
        <path d="M11.140625,34 L14.890625,28.46875 C14.1171875,28.5859375 13.296875,28.65625 12.4765625,28.7265625 C11,28.84375 9.1484375,28.9609375 7.25,28.9609375 L7.25,17.1953125 C7.25,12.9765625 7.2265625,8.828125 7.296875,5.640625 C7.3203125,3.765625 7.3671875,2.0078125 7.390625,0.390625 L0.921875,0.390625 C0.921875,1.8203125 0.9453125,3.4375 0.96875,5.1953125 C1.0390625,8.2890625 1.0625,12.390625 1.0625,17.1953125 C1.0625,22 1.0390625,26.1953125 0.96875,29.1953125 C0.9453125,30.953125 0.921875,32.5703125 0.921875,34 L11.140625,34 Z M18.796875,20.3125 C18.796875,27.71875 21.1171875,34.5859375 28.78125,34.5859375 C29.4140625,34.5625 29.9765625,34.515625 30.421875,34.421875 C31.1953125,34.046875 32.671875,32.9921875 34.0546875,31.84375 C35.4375,30.6953125 36.75,29.453125 37.4765625,28.5390625 C37.8046875,27.4140625 38.0859375,26.125 38.34375,24.6484375 C38.7890625,22.140625 39.2109375,18.5078125 39.2109375,14.03125 C39.2109375,7.9375 37.640625,4.7734375 35.8359375,2.8515625 C34.171875,0.9765625 31.9453125,0.15625 29.6953125,0.15625 C29.0625,0.15625 28.5234375,0.203125 28.03125,0.296875 C27.7265625,0.5078125 27.375,0.71875 26.9765625,0.9296875 C26.296875,1.328125 25.453125,1.890625 24.421875,2.6640625 C23.390625,3.4140625 22.40625,4.234375 21.6328125,4.8671875 C21.1875,5.21875 20.7890625,5.5703125 20.390625,5.921875 C20.0859375,7.3984375 19.8046875,8.921875 19.5703125,10.5390625 C19.1953125,13.28125 18.796875,16.84375 18.796875,20.3125 L18.796875,20.3125 Z M25.3828125,18.484375 C25.3828125,14.453125 25.59375,11.4296875 25.8515625,9.3671875 C25.9921875,8.171875 26.15625,7.1640625 26.34375,6.296875 C31.8984375,6.296875 32.625,11.921875 32.625,17.6875 C32.625,20.6171875 32.4140625,23.21875 32.15625,25.0703125 C32.015625,26.171875 31.875,27.1796875 31.7109375,28.09375 C31.40625,28.2109375 31.1015625,28.234375 30.609375,28.234375 C29.0859375,28.234375 27.8203125,27.4375 26.859375,25.8671875 C25.875,24.296875 25.3828125,21.8359375 25.3828125,18.484375 L25.3828125,18.484375 Z M43,0.390625 C43.234375,1.7734375 43.46875,3.25 43.7265625,4.8203125 C44.171875,7.515625 44.7578125,11.1015625 45.3203125,14.9453125 C46,19.5390625 46.7265625,24.2734375 47.21875,28 C47.546875,30.1796875 47.828125,32.2421875 48.0859375,34.234375 L55.5859375,33.765625 C55.9375,31.8671875 56.2890625,29.875 56.640625,27.765625 C57.2734375,24.1796875 58.046875,19.46875 58.890625,14.9453125 C59.6171875,11.1015625 60.3203125,7.421875 60.8125,4.6796875 C61.140625,3.0625 61.4453125,1.5625 61.7265625,0.15625 L56.3125,0.390625 C56.1484375,1.609375 55.9609375,2.875 55.7734375,4.1875 C55.46875,6.4375 55.0234375,9.5078125 54.578125,12.4375 C54.109375,15.2265625 53.78125,17.828125 53.4765625,19.796875 C53.3125,20.9453125 53.125,22.046875 52.9375,23.1015625 C52.7734375,22.046875 52.6328125,20.9453125 52.46875,19.796875 C52.1171875,17.8046875 51.8359375,15.1796875 51.4609375,12.4375 L49.7734375,0.15625 L43,0.390625 Z M77.9375,34 L80.609375,28.8671875 C79.7890625,28.890625 78.9453125,28.9140625 78.078125,28.9140625 C76.5546875,28.984375 74.609375,28.9609375 72.546875,28.9609375 L72.546875,19.1171875 C73.765625,19.1171875 74.84375,19.1640625 75.6875,19.1640625 C76.15625,19.1875 76.578125,19.2109375 76.9765625,19.2109375 L79.6015625,14.21875 C78.8984375,14.2421875 78.171875,14.265625 77.3984375,14.265625 C76.0625,14.3359375 74.328125,14.3125 72.546875,14.3125 L72.546875,5.4296875 C73.8359375,5.4296875 74.9140625,5.4765625 75.828125,5.4765625 C76.3203125,5.5234375 76.7890625,5.546875 77.2109375,5.546875 L80.328125,0.390625 L66.078125,0.390625 C66.078125,2.0546875 66.1015625,3.8125 66.125,5.640625 C66.1953125,8.7578125 66.21875,12.9765625 66.21875,17.1953125 C66.21875,21.4140625 66.1953125,25.5390625 66.125,28.7265625 C66.1015625,30.578125 66.078125,32.3359375 66.078125,34 L77.9375,34 Z M102.8125,21.2265625 C102.8125,24.6953125 102.789062,27.7890625 102.71875,30.15625 C102.695312,31.5390625 102.671875,32.8046875 102.671875,34 L109.398438,34 C109.351562,32.8046875 109.328125,31.46875 109.328125,29.96875 C109.257812,27.4609375 109.28125,23.9453125 109.28125,19.84375 L114.578125,0.390625 L109.539062,0.390625 L106.984375,12.25 L104.101562,0.390625 L97.09375,0.390625 L102.8125,21.2265625 Z M117.523438,20.3125 C117.523438,27.71875 119.84375,34.5859375 127.507812,34.5859375 C128.140625,34.5625 128.703125,34.515625 129.148438,34.421875 C129.921875,34.046875 131.398438,32.9921875 132.78125,31.84375 C134.164062,30.6953125 135.476562,29.453125 136.203125,28.5390625 C136.53125,27.4140625 136.8125,26.125 137.070312,24.6484375 C137.515625,22.140625 137.9375,18.5078125 137.9375,14.03125 C137.9375,7.9375 136.367188,4.7734375 134.5625,2.8515625 C132.898438,0.9765625 130.671875,0.15625 128.421875,0.15625 C127.789062,0.15625 127.25,0.203125 126.757812,0.296875 C126.453125,0.5078125 126.101562,0.71875 125.703125,0.9296875 C125.023438,1.328125 124.179688,1.890625 123.148438,2.6640625 C122.117188,3.4140625 121.132812,4.234375 120.359375,4.8671875 C119.914062,5.21875 119.515625,5.5703125 119.117188,5.921875 C118.8125,7.3984375 118.53125,8.921875 118.296875,10.5390625 C117.921875,13.28125 117.523438,16.84375 117.523438,20.3125 L117.523438,20.3125 Z M124.109375,18.484375 C124.109375,14.453125 124.320313,11.4296875 124.578125,9.3671875 C124.71875,8.171875 124.882813,7.1640625 125.070313,6.296875 C130.625,6.296875 131.351562,11.921875 131.351562,17.6875 C131.351562,20.6171875 131.140625,23.21875 130.882812,25.0703125 C130.742188,26.171875 130.601562,27.1796875 130.4375,28.09375 C130.132812,28.2109375 129.828125,28.234375 129.335938,28.234375 C127.8125,28.234375 126.546875,27.4375 125.585938,25.8671875 C124.601563,24.296875 124.109375,21.8359375 124.109375,18.484375 L124.109375,18.484375 Z M143.789062,26.171875 C143.789062,30.8359375 144.84375,34.375 149.882812,34.375 C151.40625,34.375 152.273438,33.9765625 152.390625,33.859375 C152.765625,33.484375 153.46875,32.828125 153.960938,32.265625 C154.289062,31.9609375 154.617188,31.609375 154.921875,31.2578125 C154.921875,31.984375 154.875,32.640625 154.875,33.1328125 L154.875,34 L161.554688,34 C161.53125,32.1953125 161.484375,30.3203125 161.460938,28.328125 C161.390625,24.8828125 161.414062,20.453125 161.414062,15.765625 C161.414062,12.109375 161.390625,8.265625 161.460938,5.3359375 C161.484375,3.6015625 161.53125,1.9609375 161.554688,0.390625 L154.828125,0.390625 C154.828125,3.0859375 154.851562,5.9453125 154.875,8.9921875 C154.898438,11.59375 154.921875,14.5234375 154.945312,17.828125 C154.96875,21.1328125 154.96875,24.5078125 154.96875,27.953125 C154.476562,28.2109375 153.9375,28.234375 153.445312,28.234375 C151.640625,28.234375 150.351562,26.9453125 150.351562,24.6953125 C150.351562,22.046875 150.351562,19.3046875 150.375,16.46875 C150.375,13.6328125 150.398438,11.03125 150.421875,8.6171875 C150.421875,5.828125 150.445312,3.0859375 150.46875,0.390625 L143.789062,0.390625 C143.789062,2.0078125 143.8125,3.71875 143.835938,5.4765625 C143.835938,8.5 143.882812,12.296875 143.882812,15.765625 C143.882812,18.2734375 143.859375,20.453125 143.835938,22.3046875 C143.8125,24.1796875 143.789062,25.46875 143.789062,26.171875 L143.789062,26.171875 Z M174.742188,34 C174.71875,33.2265625 174.695312,32.4296875 174.695312,31.609375 C174.625,30.109375 174.648438,28.2578125 174.648438,26.40625 L174.648438,20.078125 L179.382812,34.234375 L186.695312,33.765625 C186.320312,32.8515625 185.945312,31.8671875 185.546875,30.8359375 C184.820312,29.125 184.046875,26.875 183.320312,24.9765625 C182.453125,22.5390625 181.703125,20.3359375 181.210938,18.7421875 C180.882812,17.8046875 180.625,16.9375 180.4375,16.140625 C182.734375,14.8984375 185.195312,11.8984375 185.195312,7.75 C185.195312,6.2265625 184.867188,4.9375 184.1875,3.8828125 C183.507812,2.828125 182.78125,2.03125 181.984375,1.515625 C180.601562,0.6015625 178.515625,0.15625 175.703125,0.15625 C173.453125,0.15625 171.578125,0.2265625 170.171875,0.296875 C169.351562,0.3203125 168.601562,0.3671875 167.921875,0.390625 C167.921875,2.1015625 167.945312,3.8828125 167.96875,5.734375 C168.039062,8.921875 168.0625,13.0234375 168.0625,17.0546875 C168.0625,21.53125 168.039062,25.75 167.96875,28.8671875 C167.945312,30.6953125 167.921875,32.40625 167.921875,34 L174.742188,34 Z M174.648438,5.546875 C174.8125,5.5 175,5.4765625 175.257812,5.4765625 C176.734375,5.4765625 178.726562,6.1328125 178.726562,10.46875 C178.726562,13.375 177.226562,15.484375 176.664062,15.625 C176.078125,15.8125 175.515625,15.8828125 175.210938,16 L174.648438,16.140625 L174.648438,5.546875 Z M216.375,34 L219.046875,28.8671875 C218.226562,28.890625 217.382812,28.9140625 216.515625,28.9140625 C214.992188,28.984375 213.046875,28.9609375 210.984375,28.9609375 L210.984375,19.1171875 C212.203125,19.1171875 213.28125,19.1640625 214.125,19.1640625 C214.59375,19.1875 215.015625,19.2109375 215.414062,19.2109375 L218.039062,14.21875 C217.335938,14.2421875 216.609375,14.265625 215.835938,14.265625 C214.5,14.3359375 212.765625,14.3125 210.984375,14.3125 L210.984375,5.4296875 C212.273438,5.4296875 213.351562,5.4765625 214.265625,5.4765625 C214.757812,5.5234375 215.226562,5.546875 215.648438,5.546875 L218.765625,0.390625 L204.515625,0.390625 C204.515625,2.0546875 204.539062,3.8125 204.5625,5.640625 C204.632812,8.7578125 204.65625,12.9765625 204.65625,17.1953125 C204.65625,21.4140625 204.632812,25.5390625 204.5625,28.7265625 C204.539062,30.578125 204.515625,32.3359375 204.515625,34 L216.375,34 Z M224.171875,1.3515625 C224.171875,8.8984375 224.03125,17.1015625 224.03125,23.3359375 C224.007812,27.015625 223.960938,30.578125 223.9375,34 L228.835938,34 C228.765625,31.6328125 228.71875,29.1015625 228.695312,26.453125 C228.625,24.1796875 228.601562,21.625 228.578125,18.7890625 C228.554688,15.953125 228.554688,13.0703125 228.554688,10.140625 C228.929688,11.2421875 229.304688,12.390625 229.703125,13.609375 C230.382812,15.6484375 231.273438,18.4375 232.234375,21.3203125 C233.265625,24.53125 234.273438,27.71875 235.117188,30.15625 C235.585938,31.5859375 236.03125,32.9453125 236.453125,34.234375 L243.859375,33.765625 C243.835938,32.171875 243.789062,30.4609375 243.765625,28.6328125 C243.695312,25.46875 243.71875,21.25 243.71875,16.7265625 C243.71875,12.8828125 243.695312,8.8046875 243.765625,5.6875 C243.789062,3.859375 243.835938,2.1015625 243.859375,0.390625 L239.054688,0.390625 C239.078125,2.4296875 239.125,4.65625 239.195312,7.0703125 C239.265625,11.171875 239.335938,16.7265625 239.335938,22.8203125 C238.9375,21.6953125 238.515625,20.5 238.09375,19.2109375 C237.414062,17.0546875 236.359375,14.21875 235.445312,11.3359375 C234.578125,8.59375 233.734375,5.875 233.007812,3.8125 C232.632812,2.59375 232.257812,1.4453125 231.90625,0.390625 L223.84375,0.390625 L224.171875,1.3515625 Z M262.039062,34 L264.710938,28.8671875 C263.890625,28.890625 263.046875,28.9140625 262.179688,28.9140625 C260.65625,28.984375 258.710938,28.9609375 256.648438,28.9609375 L256.648438,19.1171875 C257.867188,19.1171875 258.945312,19.1640625 259.789062,19.1640625 C260.257812,19.1875 260.679688,19.2109375 261.078125,19.2109375 L263.703125,14.21875 C263,14.2421875 262.273438,14.265625 261.5,14.265625 C260.164062,14.3359375 258.429688,14.3125 256.648438,14.3125 L256.648438,5.4296875 C257.9375,5.4296875 259.015625,5.4765625 259.929688,5.4765625 C260.421875,5.5234375 260.890625,5.546875 261.3125,5.546875 L264.429688,0.390625 L250.179688,0.390625 C250.179688,2.0546875 250.203125,3.8125 250.226562,5.640625 C250.296875,8.7578125 250.320312,12.9765625 250.320312,17.1953125 C250.320312,21.4140625 250.296875,25.5390625 250.226562,28.7265625 C250.203125,30.578125 250.179688,32.3359375 250.179688,34 L262.039062,34 Z M274.101562,33.765625 C274.101562,32.4765625 274.125,31.1640625 274.148438,29.828125 C274.242188,27.5078125 274.289062,24.5078125 274.40625,21.625 C274.476562,19.2578125 274.523438,16.984375 274.640625,15.3203125 C274.710938,14.359375 274.757812,13.46875 274.78125,12.6484375 C274.992188,13.515625 275.203125,14.40625 275.414062,15.3671875 C275.789062,17.0546875 276.351562,19.2578125 276.84375,21.625 C277.5,24.5546875 278.179688,27.6484375 278.671875,30.015625 C278.976562,31.3984375 279.234375,32.7109375 279.492188,34 L286.359375,33.765625 L286.007812,30.8359375 C286.3125,29.546875 286.617188,28.234375 286.921875,26.8984375 C287.460938,24.578125 288.070312,21.765625 288.703125,19.0703125 C289.078125,17.2890625 289.617188,15.25 289.992188,13.65625 C290.226562,12.71875 290.460938,11.8046875 290.71875,10.9140625 C290.789062,11.7109375 290.835938,12.625 290.90625,13.65625 C291.023438,15.3671875 291.140625,17.828125 291.257812,20.5703125 C291.375,23.640625 291.421875,27.0390625 291.539062,29.734375 C291.609375,31.2578125 291.65625,32.7578125 291.679688,34.234375 L298.453125,33.765625 C298.335938,32.1015625 298.21875,30.3203125 298.101562,28.46875 C297.914062,25.28125 297.679688,21.0625 297.492188,16.7265625 C297.304688,12.6953125 297.210938,8.546875 297.09375,5.4296875 C297.023438,3.625 296.976562,1.8671875 296.953125,0.15625 L288.65625,0.390625 C288.375,1.8203125 288.046875,3.2734375 287.695312,4.7734375 C287.132812,7.328125 286.40625,10.46875 285.773438,13.1640625 C285.09375,16.09375 284.53125,18.4609375 284.085938,20.125 C283.828125,21.1328125 283.617188,22 283.429688,22.7265625 C283.195312,21.9765625 282.960938,21.109375 282.75,20.125 C282.304688,18.4609375 281.835938,16.09375 281.109375,13.1640625 C280.476562,10.46875 279.820312,7.3046875 279.257812,4.6796875 C278.90625,3.1328125 278.578125,1.6328125 278.296875,0.15625 L270.890625,0.390625 C270.820312,2.03125 270.75,3.7421875 270.65625,5.546875 C270.539062,8.6171875 270.234375,12.6953125 269.976562,16.7265625 C269.671875,21.1328125 269.320312,25.515625 269.0625,28.7734375 C268.898438,30.671875 268.757812,32.5 268.640625,34.234375 L274.101562,33.765625 Z M310.679688,34 C310.632812,32.3125 310.585938,30.484375 310.5625,28.5390625 C310.492188,25.1875 310.515625,20.828125 310.515625,16.234375 C310.515625,12.1328125 310.492188,8.171875 310.5625,5.2421875 C310.609375,3.5078125 310.65625,1.890625 310.679688,0.390625 L304.046875,0.390625 C304.046875,1.890625 304.070312,3.5078125 304.09375,5.2421875 C304.164062,8.171875 304.1875,12.1328125 304.1875,16.234375 C304.1875,20.8515625 304.164062,25.234375 304.09375,28.5390625 C304.070312,30.484375 304.046875,32.2890625 304.046875,34 L310.679688,34 Z M328.859375,34 L331.53125,28.8671875 C330.710938,28.890625 329.867188,28.9140625 329,28.9140625 C327.476562,28.984375 325.53125,28.9609375 323.46875,28.9609375 L323.46875,19.1171875 C324.6875,19.1171875 325.765625,19.1640625 326.609375,19.1640625 C327.078125,19.1875 327.5,19.2109375 327.898438,19.2109375 L330.523438,14.21875 C329.820312,14.2421875 329.09375,14.265625 328.320312,14.265625 C326.984375,14.3359375 325.25,14.3125 323.46875,14.3125 L323.46875,5.4296875 C324.757812,5.4296875 325.835938,5.4765625 326.75,5.4765625 C327.242188,5.5234375 327.710938,5.546875 328.132812,5.546875 L331.25,0.390625 L317,0.390625 C317,2.0546875 317.023438,3.8125 317.046875,5.640625 C317.117188,8.7578125 317.140625,12.9765625 317.140625,17.1953125 C317.140625,21.4140625 317.117188,25.5390625 317.046875,28.7265625 C317.023438,30.578125 317,32.3359375 317,34 L328.859375,34 Z M335.835938,27.578125 C335.953125,33.90625 339.515625,34.6328125 342.375,34.6328125 C342.820312,34.6328125 343.382812,34.5859375 343.757812,34.46875 L349.195312,29.640625 C349.453125,28.9140625 349.664062,28.1640625 349.851562,27.3671875 C350.203125,26.03125 350.53125,24.203125 350.53125,22.234375 C350.53125,18.9765625 349.523438,16.65625 346.96875,15.1796875 C346.21875,14.7109375 344.4375,13.84375 343.570312,13.3984375 C342.421875,12.8359375 341.789062,12.203125 341.789062,10.234375 C341.8125,8.921875 341.90625,7.5625 342.09375,6.15625 C342.960938,6.2734375 343.453125,7.0703125 343.710938,7.984375 C343.851562,8.5 343.945312,9.0625 344.015625,9.671875 L350.203125,6.6015625 C349.945312,1.09375 345.890625,0.15625 343.429688,0.15625 L337.429688,4.5390625 C336.328125,7 335.835938,9.6015625 335.835938,11.921875 C335.835938,12.8828125 335.976562,13.75 336.09375,14.6640625 C336.375,16.1640625 336.9375,17.2890625 337.804688,18.0625 C338.648438,18.8359375 339.539062,19.421875 340.5,19.84375 C343.335938,20.96875 344.578125,22.046875 344.578125,25.0703125 C344.578125,26.2890625 344.390625,27.578125 344.015625,28.6796875 C343.101562,28.5625 342.632812,27.71875 342.375,26.8046875 C342.257812,26.2890625 342.164062,25.703125 342.09375,25.0703125 L335.835938,27.578125 Z" id="headline" fill="#FFFFFF" sketch:type="MSShapeGroup"></path>
    </g>
</svg>