<?xml version="1.0" encoding="UTF-8" standalone="no"?>
<svg width="36px" height="30px" viewBox="0 0 36 30" version="1.1" xmlns="http://www.w3.org/2000/svg" xmlns:xlink="http://www.w3.org/1999/xlink" xmlns:sketch="http://www.bohemiancoding.com/sketch/ns">
    <!-- Generator: Sketch 3.4.4 (17249) - http://www.bohemiancoding.com/sketch -->
    <title>heart</title>
    <desc>Created with Sketch.</desc>
    <defs></defs>
    <g id="Page-1" stroke="none" stroke-width="1" fill="none" fill-rule="evenodd" sketch:type="MSPage">
        <path d="M17.570648,29.9577343 C17.570648,29.9577343 17.4907313,30.0073378 17.4549066,29.9990705 C17.4218376,30.0073378 17.3419209,29.9577343 17.3419209,29.9577343 C14.8479691,29.086918 2.8825122,16.5510213 1.74989985,15.2585756 C0.581462786,13.9358166 0,12.2134742 0,10.0915484 C0,8.5731314 0.394071935,6.92243847 1.18221581,5.13946965 C1.97311542,3.36476806 3.16910997,2.06129935 4.77019944,1.23733076 C6.37404466,0.41336217 7.67751337,0 8.68336132,0 C9.18766316,0 9.87935586,0.121252903 10.7611952,0.361002962 C10.7611952,0.361002962 14.1011615,2.32860689 14.9719778,3.19666745 C15.6774492,3.90489463 17.1435071,6.97755343 17.4328606,7.50390126 C17.4328606,7.50390126 21.6849794,2.02547463 23.0518303,1.3144917 C24.9340061,0.341712727 27.9901304,0.104718416 30.0872545,0.4381639 C34.4936952,1.13812384 35.2956178,3.68167906 35.2956178,7.29722017 C35.2956178,10.8714251 34.3917325,12.7701353 26.5984778,21.1200511 C18.7253063,29.5553952 19.0091483,29.9577343 17.570648,29.9577343" id="heart" fill="#FFFFFF" sketch:type="MSShapeGroup"></path>
    </g>
</svg>